<?xml version="1.0" encoding="UTF-8"?>
<svg version="1.1" xmlns="http://www.w3.org/2000/svg" width="540" height="746">
<path d="M0 0 C178.2 0 356.4 0 540 0 C540 246.18 540 492.36 540 746 C361.8 746 183.6 746 0 746 C0 499.82 0 253.64 0 0 Z " fill="#FEF8EF" transform="translate(0,0)"/>
<path d="M0 0 C178.2 0 356.4 0 540 0 C540 20.79 540 41.58 540 63 C532.98581377 68.93508065 525.99885207 74.82771717 518.87890625 80.62109375 C514.9359872 83.87921817 511.0661729 87.21947055 507.19165039 90.55834961 C502.8019965 94.33334391 498.33885229 98.00728461 493.84375 101.65625 C490.52313514 104.39302049 487.25953218 107.1910295 484 110 C479.01059233 114.29972713 473.95778844 118.50485409 468.84375 122.65625 C465.52313514 125.39302049 462.25953218 128.1910295 459 131 C454.01059233 135.29972713 448.95778844 139.50485409 443.84375 143.65625 C440.52313514 146.39302049 437.25953218 149.1910295 434 152 C429.01059233 156.29972713 423.95778844 160.50485409 418.84375 164.65625 C415.52313406 167.39302138 412.25956291 170.19106385 409 173 C403.98408311 177.32172863 398.90824701 181.55479196 393.76953125 185.73046875 C388.45558334 190.08505794 383.23473234 194.55078435 378 199 C371.89111965 204.19219022 365.78489359 209.38123581 359.5625 214.4375 C354.69870975 218.39508188 349.94118769 222.46542446 345.19165039 226.55834961 C340.8019965 230.33334391 336.33885229 234.00728461 331.84375 237.65625 C328.52313406 240.39302138 325.25956291 243.19106385 322 246 C316.98408311 250.32172863 311.90824701 254.55479196 306.76953125 258.73046875 C301.45558334 263.08505794 296.23473234 267.55078435 291 272 C284.89111965 277.19219022 278.78489359 282.38123581 272.5625 287.4375 C267.69870975 291.39508188 262.94118769 295.46542446 258.19165039 299.55834961 C253.8019965 303.33334391 249.33885229 307.00728461 244.84375 310.65625 C241.52313406 313.39302138 238.25956291 316.19106385 235 319 C229.98408311 323.32172863 224.90824701 327.55479196 219.76953125 331.73046875 C214.45558334 336.08505794 209.23473234 340.55078435 204 345 C197.89111965 350.19219022 191.78489359 355.38123581 185.5625 360.4375 C180.69870975 364.39508188 175.94118769 368.46542446 171.19165039 372.55834961 C166.8019965 376.33334391 162.33885229 380.00728461 157.84375 383.65625 C154.52313406 386.39302138 151.25956291 389.19106385 148 392 C142.98408311 396.32172863 137.90824701 400.55479196 132.76953125 404.73046875 C127.45558334 409.08505794 122.23473234 413.55078435 117 418 C110.89111965 423.19219022 104.78489359 428.38123581 98.5625 433.4375 C93.69870975 437.39508188 88.94118769 441.46542446 84.19165039 445.55834961 C79.8019965 449.33334391 75.33885229 453.00728461 70.84375 456.65625 C67.52313406 459.39302138 64.25956291 462.19106385 61 465 C55.98408311 469.32172863 50.90824701 473.55479196 45.76953125 477.73046875 C40.45558334 482.08505794 35.23473234 486.55078435 30 491 C23.71322199 496.34339279 17.42144891 501.67996579 11.0625 506.9375 C10.22847656 507.62714844 9.39445313 508.31679688 8.53515625 509.02734375 C5.79462074 511.15980975 2.88925749 513.07382834 0 515 C0 345.05 0 175.1 0 0 Z " fill="#B2D9CE" transform="translate(0,0)"/>
</svg>
