<?xml version="1.0" encoding="UTF-8" standalone="no"?>
<!-- Created with Inkscape (http://www.inkscape.org/) -->

<svg
   width="512"
   height="512"
   viewBox="0 0 512 512"
   version="1.1"
   id="svg5"
   xml:space="preserve"
   sodipodi:docname="logo_ink.svg"
   inkscape:version="1.2.2 (b0a8486541, 2022-12-01)"
   xmlns:inkscape="http://www.inkscape.org/namespaces/inkscape"
   xmlns:sodipodi="http://sodipodi.sourceforge.net/DTD/sodipodi-0.dtd"
   xmlns="http://www.w3.org/2000/svg"
   xmlns:svg="http://www.w3.org/2000/svg"><sodipodi:namedview
     id="namedview22"
     pagecolor="#505050"
     bordercolor="#eeeeee"
     borderopacity="1"
     inkscape:showpageshadow="0"
     inkscape:pageopacity="0"
     inkscape:pagecheckerboard="0"
     inkscape:deskcolor="#505050"
     showgrid="false"
     inkscape:zoom="1.6796875"
     inkscape:cx="259.27442"
     inkscape:cy="257.1907"
     inkscape:window-width="1920"
     inkscape:window-height="1080"
     inkscape:window-x="0"
     inkscape:window-y="0"
     inkscape:window-maximized="1"
     inkscape:current-layer="svg5" /><defs
     id="defs2" /><g
     id="layer3"
     style="display:inline"
     transform="matrix(1.2669235,0,0,1.2669235,-54.60518,-64.929055)"><path
       style="fill:#000000;stroke-width:0.666667"
       d="m 291.33333,225.70528 c -9.96301,-2.13163 -9.84687,-12.50278 -7.64856,-17.40744 2.78095,-5.4511 9.92075,-8.57375 16.67484,-7.29286 11.76901,2.38702 12.23751,19.73503 5.82548,23.09336 -6.41203,3.35833 -11.24578,2.27755 -14.85176,1.60694 z m 10.37598,-14.50118 c 1.17124,-4.21081 -5.06737,-6.40794 -5.84682,-2.18226 -0.77945,4.22568 4.55919,6.04096 5.84682,2.18226 z"
       id="path1880" /><path
       style="fill:#000000;stroke-width:0.666667"
       d="m 218.34582,227.6872 c -3.83553,-1.54597 -6.67188,-5.06146 -7.78456,-8.99777 -1.05716,-5.75851 -0.0121,-10.04445 4.15747,-13.27016 3.13257,-2.29306 7.0633,-3.73616 10.97983,-3.25478 4.19922,0.46437 7.98984,3.16271 10.03224,6.82717 1.75939,3.09847 2.34432,6.88442 1.46399,10.34809 -0.81274,2.74514 -2.99859,4.85803 -5.40622,6.28164 -3.94969,2.29839 -8.78347,3.14512 -13.2533,2.11203 -0.0633,-0.0148 -0.1263,-0.0308 -0.18945,-0.0462 z m 9.60978,-18.47701 c -0.96351,-0.97365 -2.51727,-1.37806 -3.78409,-0.77897 -1.50142,0.63689 -2.52531,2.44867 -1.95024,4.04175 0.68307,1.8239 2.93681,2.97033 4.78852,2.23987 1.45529,-0.50761 2.51425,-2.13884 2.09237,-3.67356 -0.1789,-0.71129 -0.61663,-1.33302 -1.14656,-1.82909 z"
       id="path1878" /><g
       id="g1924"
       inkscape:label="Boba"><path
         style="fill:#000000;stroke-width:0.666667"
         d="m 341.16495,363.5 c -8.68461,-7.48938 5.66461,-20.82857 12.46598,-11.78449 5.58646,6.31887 -4.78775,15.10559 -11.48574,12.26093 z"
         id="path1876" /><path
         style="fill:#000000;stroke-width:0.666667"
         d="m 331.25875,390.34662 c -5.80621,-2.42177 -5.10567,-11.05032 0.22641,-13.67969 5.11786,-4.66554 13.06569,-0.092 13.75628,6.15623 0.86882,7.41552 -8.57256,9.28279 -13.98269,7.52346 z"
         id="path1874" /><path
         style="fill:#000000;stroke-width:0.666667"
         d="m 271.77061,396.6254 c -6.34514,-1.23268 -9.9451,-10.3654 -4.25083,-14.62389 4.59543,-5.24245 13.62469,-4.8579 17.08073,1.44213 5.04556,7.99162 -5.30149,15.82233 -12.8299,13.18176 z"
         id="path1872" /><path
         style="fill:#000000;stroke-width:0.666667"
         d="m 250.77003,410.66148 c -6.72799,-1.63163 -9.86776,-11.52791 -3.75397,-15.81813 5.32265,-4.86577 16.18359,-2.03606 15.65452,6.08 0.4602,6.15565 -5.81723,11.89536 -11.90055,9.73813 z"
         id="path1870" /><path
         style="fill:#000000;stroke-width:0.666667"
         d="m 309.29051,411.56207 c -8.11717,-5.01551 -0.36627,-17.3985 7.53851,-15.93051 5.83336,1.85636 9.82004,9.70991 4.56281,14.36067 -3.30932,3.3506 -7.99006,4.04519 -12.10132,1.56984 z"
         id="path1868" /><path
         style="fill:#000000;stroke-width:0.666667"
         d="m 219.33333,412.28641 c -7.46648,-3.16201 -6.33746,-15.70156 1.63697,-17.55775 6.33725,-2.87833 16.14542,1.23522 15.1381,9.07421 -2.79118,6.50424 -9.64654,10.90175 -16.77507,8.48354 z"
         id="path1866" /><path
         style="fill:#000000;stroke-width:0.666667"
         d="m 288,414.24075 c -9.55311,-0.3369 -7.21374,-15.43898 1.1355,-15.14392 6.62997,-1.26725 14.29133,6.28101 9.04959,12.4094 -2.04439,3.6433 -6.63171,3.756 -10.18509,2.73452 z"
         id="path1864" /><path
         style="fill:#000000;stroke-width:0.666667"
         d="m 180.79153,416.30421 c -10.35721,-0.5439 -10.88485,-14.01915 -3.24957,-19.0175 7.42713,-4.952 18.96266,2.64222 17.39563,11.54202 -0.64934,6.58247 -8.61432,9.05645 -14.14606,7.47548 z"
         id="path1862" /><path
         style="fill:#000000;stroke-width:0.666667"
         d="m 325.28696,423.68153 c -10.13888,-3.76508 -1.61501,-19.45035 7.37783,-14.41478 7.21706,2.18977 8.95777,13.10385 0.21583,14.79126 -2.51904,1.55324 -5.12052,0.80519 -7.59366,-0.37648 z"
         id="path1860" /><path
         style="fill:#000000;stroke-width:0.666667"
         d="m 198.66667,431.32205 c -8.6157,-2.5424 -6.79046,-16.35284 1.18685,-18.78405 8.49028,-3.7249 16.71454,7.39346 12.20153,14.88237 -3.16348,3.76185 -8.6741,5.78906 -13.38838,3.90168 z"
         id="path1858" /><path
         style="fill:#000000;stroke-width:0.666667"
         d="m 264.66667,432.0341 c -8.33293,-2.66494 -6.2532,-13.43026 -1.32962,-18.33714 4.96553,-5.5745 13.86391,-0.85673 15.82944,5.27068 5.00202,8.48113 -6.68705,17.04501 -14.49982,13.06646 z"
         id="path1856" /><path
         style="fill:#000000;stroke-width:0.666667"
         d="m 293.98245,433.35088 c -7.86151,-5.9765 2.79675,-16.21822 10.06369,-13.82666 6.64532,0.61892 9.31955,9.1605 4.50183,13.63625 -3.54961,3.84076 -11.22293,4.74838 -14.56552,0.19041 z"
         id="path1854" /><path
         style="fill:#000000;stroke-width:0.666667"
         d="m 235.17126,435.37545 c -6.80403,-2.99242 -6.84675,-12.69476 -0.99061,-16.74018 7.21004,-8.47556 18.98854,2.63714 15.33221,11.5697 -2.44773,4.95996 -9.2589,7.75652 -14.3416,5.17048 z"
         id="path1852" /></g><path
       style="fill:#000000;stroke-width:0.666667"
       d="m 190.62813,445.64312 c -9.88602,-2.3684 -21.43977,-12.14986 -33.1307,-29.33891 -7.8826,-12.85681 -10.76614,-49.46008 -7.8826,-67.62072 0.44413,-1.65594 1.48597,-5.06619 1.00182,-5.82171 -0.48418,-0.75551 -2.30966,-1.21579 -3.22386,-1.21579 -0.9142,0 -3.11617,0.45463 -3.47566,1.21579 -0.74996,1.5879 -0.32588,4.46271 -1.21975,6.85551 -2.10188,5.62653 -7.78732,4.75958 -12.15484,4.91456 -6.4295,0.22814 -14.62455,-0.71115 -18.36114,-5.94836 -5.76394,-8.07876 -4.95147,-20.89414 0.5384,-29.76766 1.59813,-2.53161 1.61763,-2.71198 0.69472,-6.42694 -0.52226,-2.10222 -1.14771,-4.97354 -1.38989,-6.3807 -0.24218,-1.40716 -1.55052,-8.25891 -1.55052,-9.72034 0,-3.71707 5.53249,-5.2156 10.51458,-5.77925 l 3.88572,-0.43961 c -0.0182,-1.40104 0.0417,-9.75384 0,-14.63808 -0.0104,-1.1291 6.75017,-1.1869 6.72818,0 -0.0717,5.23728 -0.0102,7.9498 -0.0256,14.63808 l 3.15665,0.43961 c 4.88054,0.67969 12.07126,2.24472 12.07126,5.77925 0,0.78869 -0.46186,3.9083 -0.92666,6.98263 -0.4648,3.07432 -2.38061,6.91984 -1.61874,6.91984 4.39995,0 12.07383,-4.18213 14.88061,-11.88957 C 162.03508,290.45113 169.84211,285.27522 174,285 c 0,0 3,-0.3 3,-0.66667 -3.04606,-2.5064 -6.12683,-4.26487 -12.1912,-10.33955 -6.06437,-6.07468 -3.19001,-20.00079 -8.77294,-23.47331 -2.34819,-1.46055 -3.82734,-2.64875 -6.42103,-2.64875 -9.46462,0 -13.37846,-7.52448 -13.37846,-16.05102 0,-8.52654 -0.11271,-13.03983 0,-20.88893 0,-10.91872 14.76601,-15.16932 18.84976,-15.16932 7.58849,0 4.57096,-10.93163 7.1028,-16.2855 3.96077,-9.34728 9.16174,-18.19199 16.18604,-25.15277 l 5.10701,-5.00914 C 173.15249,126.59923 163.7061,92.51947 159.34809,79.333329 154.99008,66.147188 155.08613,65.097805 155.08613,65.097805 l 17.0934,-9.828833 c 10.43615,22.693858 18.70354,48.324678 27.80092,70.397688 0.84151,2.01667 1.71731,4.41667 1.94623,5.33334 0.22892,0.91666 0.84755,2.22642 1.37474,2.91056 15.56487,-4.90323 31.24727,-10.7757 47.54401,-11.80463 19.91472,-1.25735 41.21186,-1.08802 59.45204,7.00352 17.15684,7.61097 28.76168,16.67436 42.41418,37.03505 7.39208,11.16048 11.50842,18.8626 13.58464,25.41834 1.11204,3.51126 1.27786,3.68378 4.4295,4.60848 10.60415,3.11128 11.38875,9.354 11.38875,18.82868 v 20.66677 c 0,10.69103 -11.38875,12.20495 -16.40242,12.20495 -5.01367,0 -5.53408,8.42951 -6.9589,13.19289 -1.25322,4.18971 -2.25322,7.99769 -6.78327,11.60205 -2.39919,2.27825 -2.49845,2.95842 -0.54241,3.71694 6.50393,1.6485 12.15969,6.05889 16.33315,9.9412 3.90961,3.64803 7.77699,9.29111 9.7928,14.12885 4.07322,11.93135 -2.0106,26.5796 -8.59945,33.21024 -2.94592,2.88977 -6.84624,3.84668 -6.71449,4.25691 0.79896,2.48762 2.1693,19.42467 2.16395,26.74587 -0.008,10.32598 -2.32098,29.20072 -4.07017,36.61794 -3.28681,18.24472 -17.28029,34.45313 -32.60019,41.14926 -20.17101,7.92435 -43.78349,8.78701 -64.39981,8.92452 -24.14915,-0.43006 -51.19359,-0.90881 -72.7052,-5.71527 z m 142.7052,-18.69234 c 15.40301,-13.12488 21.7951,-32.35366 23.29308,-56.06307 0.5719,-8.7795 -0.37837,-29.29562 -1.37463,-29.67792 -16.43126,4.21343 -34.12777,6.02552 -44.61705,-6.86 -5.1843,-6.20242 -7.49488,-14.01646 -6.15789,-20.37448 -0.67795,0.16144 -2.2282,0.46571 -4.85983,2.76118 -12.43244,11.83615 -28.37948,18.05547 -43.20633,21.54566 -17.48685,3.80207 -39.50238,2.1425 -52.41068,2.44211 -12.9083,0.29961 -43.95725,7.2764 -44.64047,14.29902 -1.8621,14.87311 -0.23405,38.51837 4.93619,50.31002 5.69578,12.30366 16.10867,24.00316 26.33241,31.00003 9.35232,6.10054 58.05696,7.33309 72.7052,7.33309 19.90664,0 51.74047,-1.15672 70,-16.71564 z m -169.6935,-85.60385 c 8.98468,-5.01678 25.35376,-8.52918 37.36017,-8.5893 12.00641,-0.0601 36.15006,1.03506 54.66667,-2.38324 14.71998,-3.09558 26,-9.31921 40.31264,-19.53306 3.76737,-2.51025 8.56238,-4.05582 10.16668,-4.73314 0.40903,0 3.43172,-3.6075 4.76436,-5.03258 6.22584,-6.65772 12.91458,-8.08094 21.9328,-4.66684 1.13976,0.4315 1.83422,0.2472 2.83334,-0.75192 1.83979,-1.45448 4.08417,-2.36122 5.69155,-3.57961 3.26682,-2.49441 3.23243,-2.60833 -1.50815,-4.99656 -4.59133,-2.61581 -6.647,0.29906 -10.54921,1.25809 -7.34159,2.27582 -14.0688,5.28686 -21.45863,6.02436 -22.16778,2.56314 -44.88637,3.26754 -67.18538,1.79632 -3.3,-0.24976 -8.55,-0.58209 -11.66667,-0.73851 -6.32595,-0.31749 -12.54867,-1.05474 -31.61709,-3.7459 -4.16138,-0.5873 -13.99303,3.94504 -16.59138,5.24272 -11.10039,7.65736 -11.98647,14.91168 -16.58356,26.08224 -1.61099,5.66928 -2.9209,8.9208 -4.16522,14.34549 -0.75102,5.05927 -0.41668,6.02024 3.59708,4.00144 z m -17.04449,-14.06812 c 2.4931,-3.25054 -2.04682,-9.01859 -5.68912,-10.89348 -0.91942,-0.47328 -2.2015,-0.12846 -3.07243,0.42904 -0.8301,0.53137 -1.67918,1.50598 -1.59742,2.48819 0.2653,3.18697 5.98984,5.02539 6.44666,7.10528 0.47538,2.16437 3.09922,1.93109 3.91231,0.87097 z m -21.38645,-8.60311 c 1.30445,-0.54503 3.68169,-2.47856 4.37094,-3.64537 0.68925,-1.16681 3.89873,-3.64165 6.03332,-3.85222 4.97486,-0.6572 4.35119,-1.24023 4.90154,-8.38353 -1.05952,0 -9.72546,0.13992 -12.08268,0.20542 -5.76146,0.0984 -11.47823,0.0752 -11.7294,0.0752 -0.26963,0 0.29713,3.43746 1.08398,7.21512 1.03626,6.7023 1.6392,10.74057 7.4223,8.38541 z M 283,287.08068 c 14.27712,-1.39469 28.10984,-2.53936 40.08729,-7.01222 11.21565,-3.55322 21.79025,-10.87594 27.38482,-19.6597 0.801,-2.54086 -2.73699,-1.14974 -3.40902,-0.80914 -15.02075,7.51647 -32.6361,13.16822 -47.44608,14.39416 -23.93379,1.54247 -46.11762,1.81189 -71.95034,0 -15.66364,-1.09864 -30.79265,-3.41941 -40.71967,-5.07632 -6.44478,-1.07569 -10.69701,-1.87157 -11.47955,-1.87157 v 0 c -0.33981,0.72628 1.53255,2.3004 1.53255,2.3004 12.80173,14.17818 28.86838,13.07131 39.66667,14.99934 27.52015,4.80692 41.12682,4.02649 66.33333,2.73505 z m -68.27138,-42.97304 c 0,-1.66833 -14.5782,-1.86857 -19.72862,-2.09445 -5.15042,-0.22588 -20.52734,-0.737 -26.01209,-2.70044 -5.48475,-1.96344 -5.63547,-2.97233 -6.9845,-5.64451 -2.45096,-4.85491 -1.95978,-12.63733 -0.71634,-16.2998 0.59992,-1.76705 1.00576,-3.29388 0.90186,-3.39295 -0.10392,-0.0991 -1.20328,1.14653 -2.44304,2.768 -2.24155,2.93171 -2.25358,2.98608 -2.16062,9.76289 0.10866,7.92193 0.26112,8.56081 2.93712,12.30807 2.56186,3.58744 4.2183,4.09952 14.47761,4.47565 13.57515,0.49771 24,1.70118 27.26759,1.70118 3.26759,0 12.46103,0.78469 12.46103,-0.88364 z M 283,240.34721 c 8.19001,-0.63451 14.75339,-1.38779 23.33333,-2.67798 2.38334,-0.35839 6.73334,-0.9572 9.66667,-1.33069 11.77092,-2.24623 31.19738,-4.90772 40.5,-11.3628 5.08567,-3.31033 3.7913,-15.61776 1,-16.95976 -9.85999,-4.3799 -22.44407,-8.53366 -34.00905,-11.6861 -10.2267,-2.78764 -21.45581,-5.93692 -31.15762,-6.35687 -4.58333,-0.1666 -9.38333,-0.49037 -10.66666,-0.71949 -1.28334,-0.22912 -7.88334,-0.55904 -14.66667,-0.73314 -12.77343,-0.0455 -27.13644,-0.66652 -38.59017,1.45152 -15.5437,3.50905 -44.23857,10.17908 -56.2303,20.95987 -3.80338,3.49915 -7.37073,6.16898 -7.37073,11.81156 0,5.16556 0.16984,7.75962 2.1912,10.21248 3.39969,4.42633 10.10481,3.53374 15.29714,4.00296 33.68608,1.93073 68.101,5.73782 100.70286,3.38847 z m 75.75322,-40.33416 c -8.28111,-5.14298 -22.50491,-10.1988 -31.65418,-11.49267 -12.09759,-1.70342 -11.09904,0.73314 -1.43237,2.48258 2.88853,0.55988 25.76087,9.71585 34.96666,12.64999 0.385,-0.008 -0.0468,-2.0206 -1.88011,-3.6399 z M 193.30527,165.9381 c 0.74877,-0.4007 3.3114,-1.7717 5.69473,-3.04666 7.61027,-4.0711 13.84693,-6.12351 18.76911,-6.17667 3.09687,-0.38069 9.06858,-0.73967 11.44505,-2.39059 2.13471,-2.02795 3.43675,-4.53454 3.09731,-7.0916 -0.21721,-1.6363 -1.60385,-3.16073 -3.09731,-3.86375 -6.39869,-3.01209 -11.27217,-4.11713 -21.21416,0.3211 -8.82117,3.93788 -16.10603,12.25561 -20.63279,23.55815 -1.54381,3.85463 -1.30332,4.07744 1.7714,1.64127 1.5429,-1.22248 3.4179,-2.55054 4.16666,-2.95125 z M 167,81.674643 c -0.91677,-2.95846 -2.20386,-9.25414 -4.05211,-7.980095 -1.84825,1.274045 -0.52696,3.054803 1.21112,7.980095 1.73808,4.925292 4.31788,10.658686 4.8289,10.658686 0,-1.095191 -1.07114,-7.700226 -1.98791,-10.658686 z m -1.84275,-13.841315 c 1.42815,-1.616745 3.88013,-6.351506 3.49085,-6.740792 -0.48843,-0.48843 -3.50312,2.551624 -4.93215,4.97365 -1.69123,2.866422 -0.65357,4.138666 1.4413,1.767142 z"
       id="path618" /></g></svg>
