<svg xmlns="http://www.w3.org/2000/svg" version="1.1" xmlns:xlink="http://www.w3.org/1999/xlink" xmlns:svgjs="http://svgjs.com/svgjs" width="512" height="512"><svg xmlns="http://www.w3.org/2000/svg" xml:space="preserve" width="512" height="512" style="fill: black;"><path d="M314.492 221.022c-12.623-2.7-12.475-15.84-9.69-22.054 3.523-6.906 12.569-10.862 21.125-9.24 14.91 3.025 15.504 25.004 7.38 29.258-8.123 4.255-14.247 2.886-18.815 2.036zm13.145-18.372c1.484-5.334-6.42-8.118-7.407-2.764-.988 5.353 5.776 7.653 7.407 2.764zM222.022 223.533c-4.86-1.958-8.452-6.412-9.862-11.4-1.34-7.295-.016-12.725 5.267-16.812 3.969-2.905 8.949-4.733 13.91-4.123 5.32.588 10.123 4.007 12.71 8.65 2.23 3.925 2.97 8.721 1.855 13.11-1.03 3.478-3.799 6.154-6.849 7.958-5.004 2.912-11.128 3.985-16.79 2.676l-.24-.059zm12.175-23.409c-1.22-1.233-3.19-1.746-4.794-.987-1.902.807-3.2 3.103-2.47 5.12.865 2.312 3.72 3.764 6.066 2.839 1.844-.643 3.185-2.71 2.65-4.654-.226-.902-.78-1.69-1.452-2.318zM377.625 395.598c-11.003-9.489 7.176-26.389 15.793-14.93 7.078 8.005-6.066 19.137-14.551 15.533zM365.074 429.61c-7.356-3.068-6.468-14 .287-17.33 6.484-5.912 16.553-.117 17.428 7.799 1.101 9.394-10.86 11.76-17.715 9.531zM289.707 437.565c-8.038-1.562-12.6-13.132-5.385-18.527 5.822-6.642 17.261-6.155 21.64 1.827 6.392 10.124-6.717 20.045-16.255 16.7zM263.101 455.348c-8.524-2.068-12.501-14.605-4.756-20.04 6.744-6.165 20.504-2.58 19.833 7.702.583 7.799-7.37 15.07-15.077 12.338zM337.242 456.489c-10.284-6.355-.464-22.043 9.551-20.183 7.39 2.352 12.441 12.302 5.78 18.194-4.192 4.245-10.122 5.125-15.33 1.989zM223.273 457.406c-9.46-4.006-8.029-19.892 2.074-22.244 8.03-3.647 20.455 1.565 19.18 11.496-3.537 8.24-12.222 13.812-21.254 10.748zM310.269 459.882c-12.103-.427-9.14-19.56 1.438-19.186 8.4-1.605 18.106 7.958 11.466 15.722-2.59 4.616-8.402 4.758-12.904 3.464zM174.444 462.497c-13.122-.69-13.79-17.762-4.117-24.094 9.41-6.274 24.024 3.347 22.039 14.623-.823 8.34-10.914 11.473-17.922 9.47zM357.509 471.843c-12.846-4.77-2.047-24.642 9.347-18.262 9.143 2.774 11.348 16.601.273 18.739-3.191 1.968-6.487 1.02-9.62-.477zM197.09 481.523c-10.915-3.221-8.603-20.718 1.504-23.798 10.756-4.72 21.176 9.367 15.458 18.855-4.008 4.766-10.99 7.334-16.962 4.943zM280.707 482.425c-10.557-3.376-7.922-17.015-1.684-23.232 6.29-7.062 17.564-1.085 20.054 6.678 6.338 10.745-8.472 21.595-18.37 16.554zM317.848 484.093c-9.96-7.571 3.543-20.547 12.75-17.517 8.42.784 11.807 11.606 5.703 17.276-4.497 4.866-14.218 6.016-18.453.241zM243.339 486.658c-8.62-3.79-8.674-16.083-1.255-21.208 9.134-10.738 24.057 3.34 19.425 14.658-3.102 6.284-11.73 9.827-18.17 6.55z"></path><path d="M186.906 499.667c-12.525-3-27.162-15.393-41.974-37.17-9.987-16.29-13.64-62.663-9.987-85.67.563-2.099 1.883-6.42 1.27-7.376-.614-.958-2.927-1.54-4.085-1.54s-3.948.575-4.403 1.54c-.95 2.011-.413 5.654-1.546 8.685-2.662 7.128-9.865 6.03-15.399 6.226-8.145.29-18.528-.9-23.262-7.536-7.302-10.235-6.273-26.471.682-37.713 2.025-3.207 2.05-3.436.88-8.143-.661-2.663-1.454-6.3-1.76-8.083-.307-1.783-1.965-10.464-1.965-12.315 0-4.71 7.01-6.608 13.321-7.322l4.923-.557c-.023-1.775.053-12.358 0-18.545-.013-1.431 8.552-1.504 8.524 0-.09 6.635-.013 10.071-.032 18.545l3.999.557c6.183.86 15.293 2.844 15.293 7.322 0 .999-.585 4.951-1.174 8.846-.588 3.895-3.016 8.767-2.05 8.767 5.574 0 15.296-5.298 18.852-15.063 3.668-10.072 13.559-16.63 18.827-16.978 0 0 3.8-.38 3.8-.844-3.859-3.176-7.762-5.404-15.445-13.1-7.683-7.696-4.042-25.34-11.115-29.739-2.975-1.85-4.849-3.356-8.135-3.356-11.99 0-16.95-9.532-16.95-20.335 0-10.802-.142-16.52 0-26.465 0-13.833 18.708-19.218 23.882-19.218 9.614 0 5.791-13.85 8.999-20.632 5.018-11.843 11.607-23.048 20.506-31.867l6.47-6.346c-13.086-28.78-25.054-71.956-30.575-88.662-5.522-16.706-5.4-18.035-5.4-18.035l21.656-12.452c13.222 28.75 23.696 61.223 35.222 89.188 1.066 2.555 2.175 5.596 2.465 6.757.29 1.161 1.074 2.82 1.742 3.687 19.72-6.212 39.588-13.652 60.235-14.955 25.23-1.593 52.212-1.379 75.321 8.873 21.736 9.642 36.439 21.125 53.735 46.92 9.366 14.14 14.58 23.898 17.211 32.203 1.41 4.449 1.62 4.667 5.612 5.839 13.435 3.942 14.429 11.85 14.429 23.854v26.184c0 13.544-14.429 15.462-20.78 15.462-6.353 0-7.012 10.68-8.817 16.715-1.588 5.308-2.855 10.132-8.594 14.699-3.04 2.886-3.166 3.748-.687 4.709 8.24 2.088 15.405 7.676 20.692 12.595 4.954 4.621 9.853 11.77 12.407 17.9 5.16 15.116-2.547 33.674-10.895 42.075-3.732 3.66-8.673 4.873-8.506 5.393 1.012 3.151 2.748 24.61 2.741 33.885-.01 13.082-2.94 36.995-5.156 46.392-4.165 23.115-21.893 43.65-41.302 52.133-25.555 10.04-55.47 11.132-81.59 11.306-30.595-.544-64.858-1.15-92.112-7.24zm180.797-23.682c19.514-16.628 27.612-40.99 29.51-71.028.725-11.123-.48-37.115-1.741-37.6-20.818 5.339-43.238 7.635-56.527-8.69-6.568-7.858-9.495-17.758-7.801-25.813-.86.204-2.823.59-6.157 3.498-15.751 14.995-35.955 22.875-54.74 27.297-22.154 4.816-50.046 2.714-66.4 3.094-16.354.38-55.69 9.218-56.556 18.115-2.359 18.843-.296 48.8 6.254 63.74 7.216 15.587 20.408 30.41 33.361 39.274 11.849 7.729 73.554 9.29 92.112 9.29 25.22 0 65.551-1.465 88.685-21.177zM152.714 367.53c11.383-6.355 32.121-10.805 47.332-10.882 15.212-.076 45.8 1.312 69.259-3.019 18.649-3.922 32.94-11.807 51.073-24.747 4.773-3.18 10.848-5.138 12.88-5.996.519 0 4.348-4.57 6.036-6.376 7.888-8.435 16.362-10.238 27.788-5.913 1.444.547 2.323.313 3.59-.952 2.33-1.843 5.174-2.992 7.21-4.536 4.139-3.16 4.095-3.304-1.91-6.33-5.818-3.314-8.422.38-13.366 1.594-9.301 2.883-17.824 6.698-27.186 7.633-28.085 3.247-56.868 4.14-85.119 2.275a707.405 707.405 0 0 0-14.78-.935c-8.015-.403-15.899-1.337-40.057-4.746-5.272-.744-17.728 4.998-21.02 6.642-14.063 9.701-15.186 18.892-21.01 33.044-2.041 7.183-3.7 11.302-5.277 18.175-.952 6.41-.528 7.627 4.557 5.07zm-21.594-17.823c3.158-4.118-2.593-11.426-7.208-13.801-1.165-.6-2.789-.163-3.892.544-1.052.673-2.128 1.907-2.024 3.152.336 4.038 7.589 6.367 8.167 9.002.603 2.742 3.927 2.446 4.957 1.103zm-27.095-10.9c1.653-.69 4.664-3.14 5.538-4.618.873-1.478 4.939-4.613 7.643-4.88 6.303-.833 5.513-1.571 6.21-10.621-1.342 0-12.321.177-15.308.26-7.299.124-14.542.095-14.86.095-.342 0 .377 4.355 1.373 9.141 1.313 8.491 2.077 13.608 9.404 10.624zm199.91-40.028c18.087-1.767 35.612-3.217 50.787-8.884 14.21-4.501 27.606-13.779 34.694-24.907 1.015-3.22-3.467-1.457-4.319-1.025-19.03 9.523-41.347 16.683-60.11 18.236-30.323 1.954-58.428 2.296-91.156 0-19.845-1.392-39.012-4.332-51.589-6.431-8.165-1.363-13.552-2.371-14.543-2.371-.43.92 1.941 2.914 1.941 2.914 16.22 17.963 36.574 16.56 50.255 19.003 34.866 6.09 52.104 5.101 84.04 3.465zm-86.495-54.443c0-2.114-18.47-2.368-24.995-2.654-6.525-.286-26.007-.934-32.955-3.421-6.95-2.488-7.14-3.766-8.85-7.151-3.104-6.151-2.482-16.01-.907-20.65.76-2.24 1.274-4.174 1.143-4.3-.132-.125-1.525 1.453-3.095 3.507-2.84 3.715-2.855 3.784-2.738 12.37.138 10.036.331 10.845 3.721 15.593 3.246 4.545 5.345 5.193 18.342 5.67 17.2.63 30.407 2.155 34.546 2.155 4.14 0 15.788.994 15.788-1.12zm86.494-4.765c10.376-.803 18.692-1.758 29.562-3.392 3.02-.454 8.53-1.213 12.247-1.686 14.913-2.846 39.524-6.218 51.31-14.396 6.443-4.194 4.803-19.787 1.267-21.487-12.492-5.549-28.435-10.811-43.087-14.805-12.956-3.532-27.183-7.522-39.474-8.054-5.807-.21-11.888-.621-13.514-.911-1.626-.29-9.988-.709-18.582-.93-16.183-.057-34.38-.844-48.89 1.84-19.693 4.446-56.047 12.896-71.24 26.554-4.818 4.434-9.338 7.816-9.338 14.965 0 6.544.215 9.83 2.776 12.938 4.307 5.608 12.802 4.477 19.38 5.072 42.678 2.446 86.28 7.269 127.583 4.293zm95.974-51.1c-10.492-6.516-28.512-12.92-40.104-14.56-15.326-2.158-14.061.929-1.814 3.145 3.66.71 32.637 12.31 44.3 16.027.487-.01-.06-2.56-2.382-4.612zm-209.61-43.17 7.215-3.86c9.641-5.158 17.543-7.758 23.779-7.825 3.923-.483 11.489-.938 14.5-3.03 2.704-2.568 4.354-5.744 3.924-8.984-.276-2.073-2.032-4.004-3.924-4.895-8.107-3.816-14.281-5.216-26.877.407-11.176 4.99-20.405 15.527-26.14 29.846-1.956 4.884-1.651 5.166 2.244 2.08 1.955-1.549 4.33-3.232 5.279-3.74zM156.97 38.546c-1.161-3.748-2.792-11.724-5.134-10.11-2.341 1.614-.667 3.87 1.535 10.11 2.202 6.24 5.47 13.504 6.118 13.504 0-1.387-1.357-9.755-2.519-13.504zm-2.335-17.535c1.81-2.049 4.916-8.047 4.423-8.54-.619-.62-4.438 3.232-6.249 6.3-2.142 3.632-.828 5.244 1.826 2.24z"></path></svg><style>@media (prefers-color-scheme: light) { :root { filter: none; } }
@media (prefers-color-scheme: dark) { :root { filter: invert(100%); } }
</style></svg>
